<svg width="64" height="64" viewBox="0 0 64 64" fill="none" xmlns="http://www.w3.org/2000/svg">
<g clip-path="url(#clip0_314_9819)">
<path d="M44 0H20C8.956 0 0 8.956 0 20V44C0 55.044 8.956 64 20 64H44C55.044 64 64 55.044 64 44V20C64 8.956 55.044 0 44 0ZM58 44C58 51.72 51.72 58 44 58H20C12.28 58 6 51.72 6 44V20C6 12.28 12.28 6 20 6H44C51.72 6 58 12.28 58 20V44Z" fill="#9E0909"/>
<path d="M32 16C23.164 16 16 23.164 16 32C16 40.836 23.164 48 32 48C40.836 48 48 40.836 48 32C48 23.164 40.836 16 32 16ZM32 42C26.488 42 22 37.512 22 32C22 26.484 26.488 22 32 22C37.512 22 42 26.484 42 32C42 37.512 37.512 42 32 42Z" fill="#9E0909"/>
<path d="M49.1999 16.932C50.3773 16.932 51.3319 15.9774 51.3319 14.8C51.3319 13.6225 50.3773 12.668 49.1999 12.668C48.0224 12.668 47.0679 13.6225 47.0679 14.8C47.0679 15.9774 48.0224 16.932 49.1999 16.932Z" fill="#9E0909"/>
</g>
<defs>
<clipPath id="clip0_314_9819">
<rect width="64" height="64" fill="white"/>
</clipPath>
</defs>
</svg>
