<svg width="64" height="64" viewBox="0 0 64 64" fill="none" xmlns="http://www.w3.org/2000/svg">
<g clip-path="url(#clip0_314_9865)">
<path d="M26.5018 37.4984C20.3932 31.3897 19.0138 25.281 18.7027 22.8335C18.6157 22.1568 18.8486 21.4782 19.3327 20.9974L24.2762 16.0562C25.0034 15.3294 25.1324 14.1968 24.5874 13.3251L16.7165 1.10333C16.1135 0.138088 14.8753 -0.210278 13.8574 0.298917L1.22185 6.24981C0.398738 6.65512 -0.0854024 7.52965 0.00805237 8.44236C0.670121 14.732 3.41219 30.1935 18.6067 45.3891C33.8012 60.5847 49.2605 63.3257 55.5534 63.9877C56.4662 64.0812 57.3407 63.5971 57.746 62.774L63.6969 50.1384C64.2042 49.1227 63.8581 47.8879 62.8969 47.2837L50.6751 39.4151C49.8039 38.8694 48.6713 38.9975 47.9441 39.724L43.0028 44.6675C42.5221 45.1516 41.8434 45.3845 41.1667 45.2975C38.7192 44.9864 32.6105 43.6071 26.5018 37.4984V37.4984Z" fill="#9E0909"/>
<path d="M50.759 34.2071C49.5401 34.2071 48.5521 33.219 48.5521 32.0002C48.5417 22.8632 41.1373 15.4588 32.0004 15.4485C30.7815 15.4485 29.7935 14.4604 29.7935 13.2416C29.7935 12.0227 30.7815 11.0347 32.0004 11.0347C43.574 11.0474 52.9531 20.4265 52.9659 32.0002C52.9659 33.219 51.9778 34.2071 50.759 34.2071Z" fill="#9E0909"/>
<path d="M61.7935 34.2069C60.5746 34.2069 59.5866 33.2188 59.5866 32C59.5695 16.7716 47.2287 4.43082 32.0004 4.41379C30.7815 4.41379 29.7935 3.42573 29.7935 2.2069C29.7935 0.988061 30.7815 0 32.0004 0C49.6654 0.0194603 63.9809 14.335 64.0003 32C64.0003 32.5853 63.7678 33.1466 63.354 33.5605C62.9401 33.9744 62.3788 34.2069 61.7935 34.2069Z" fill="#9E0909"/>
</g>
<defs>
<clipPath id="clip0_314_9865">
<rect width="64" height="64" fill="white"/>
</clipPath>
</defs>
</svg>
