<svg width="64" height="64" viewBox="0 0 64 64" fill="none" xmlns="http://www.w3.org/2000/svg">
<g clip-path="url(#clip0_314_9786)">
<path d="M48.0828 44.3122L59.5042 55.7308L55.7308 59.5042L44.3122 48.0828C40.0635 51.4888 34.7788 53.3412 29.3335 53.3335C16.0855 53.3335 5.3335 42.5815 5.3335 29.3335C5.3335 16.0855 16.0855 5.3335 29.3335 5.3335C42.5815 5.3335 53.3335 16.0855 53.3335 29.3335C53.3412 34.7788 51.4888 40.0635 48.0828 44.3122ZM42.7335 42.3335C46.1178 38.8532 48.0078 34.188 48.0002 29.3335C48.0002 19.0188 39.6455 10.6668 29.3335 10.6668C19.0188 10.6668 10.6668 19.0188 10.6668 29.3335C10.6668 39.6455 19.0188 48.0002 29.3335 48.0002C34.188 48.0078 38.8532 46.1178 42.3335 42.7335L42.7335 42.3335Z" fill="#9E0909"/>
</g>
<defs>
<clipPath id="clip0_314_9786">
<rect width="64" height="64" fill="white"/>
</clipPath>
</defs>
</svg>
