<svg width="64" height="64" viewBox="0 0 64 64" fill="none" xmlns="http://www.w3.org/2000/svg">
<g clip-path="url(#clip0_314_9795)">
<path d="M10.6668 42.6668V10.6668H5.3335V5.3335H13.3335C14.0407 5.3335 14.719 5.61445 15.2191 6.11454C15.7192 6.61464 16.0002 7.29292 16.0002 8.00016V40.0002H49.1682L54.5015 18.6668H21.3335V13.3335H57.9202C58.3255 13.3335 58.7255 13.4259 59.0898 13.6037C59.4541 13.7815 59.773 14.04 60.0224 14.3596C60.2718 14.6792 60.445 15.0514 60.5289 15.4479C60.6129 15.8445 60.6053 16.255 60.5068 16.6482L53.8402 43.3148C53.6957 43.8915 53.3627 44.4033 52.894 44.7691C52.4254 45.1348 51.848 45.3335 51.2535 45.3335H13.3335C12.6263 45.3335 11.948 45.0525 11.4479 44.5524C10.9478 44.0523 10.6668 43.3741 10.6668 42.6668ZM16.0002 61.3335C14.5857 61.3335 13.2291 60.7716 12.2289 59.7714C11.2287 58.7712 10.6668 57.4146 10.6668 56.0002C10.6668 54.5857 11.2287 53.2291 12.2289 52.2289C13.2291 51.2287 14.5857 50.6668 16.0002 50.6668C17.4146 50.6668 18.7712 51.2287 19.7714 52.2289C20.7716 53.2291 21.3335 54.5857 21.3335 56.0002C21.3335 57.4146 20.7716 58.7712 19.7714 59.7714C18.7712 60.7716 17.4146 61.3335 16.0002 61.3335ZM48.0002 61.3335C46.5857 61.3335 45.2291 60.7716 44.2289 59.7714C43.2287 58.7712 42.6668 57.4146 42.6668 56.0002C42.6668 54.5857 43.2287 53.2291 44.2289 52.2289C45.2291 51.2287 46.5857 50.6668 48.0002 50.6668C49.4146 50.6668 50.7712 51.2287 51.7714 52.2289C52.7716 53.2291 53.3335 54.5857 53.3335 56.0002C53.3335 57.4146 52.7716 58.7712 51.7714 59.7714C50.7712 60.7716 49.4146 61.3335 48.0002 61.3335Z" fill="#9E0909"/>
</g>
<defs>
<clipPath id="clip0_314_9795">
<rect width="64" height="64" fill="white"/>
</clipPath>
</defs>
</svg>
