<svg width="64" height="64" viewBox="0 0 64 64" fill="none" xmlns="http://www.w3.org/2000/svg">
<g clip-path="url(#clip0_314_9804)">
<path d="M53.3332 58.6665H15.1578L15.9998 53.3332H47.9998C47.9998 51.2114 47.157 49.1766 45.6567 47.6763C44.1564 46.176 42.1216 45.3332 39.9998 45.3332H23.9998C21.8781 45.3332 19.8433 46.176 18.343 47.6763C16.8427 49.1766 15.9998 51.2114 15.9998 53.3332H47.9998L48.842 58.6665H10.6665V53.3332C10.6665 49.7969 12.0713 46.4056 14.5717 43.9051C17.0722 41.4046 20.4636 39.9998 23.9998 39.9998H39.9998C43.5361 39.9998 46.9274 41.4046 49.4279 43.9051C51.9284 46.4056 53.3332 49.7969 53.3332 53.3332V58.6665ZM31.9998 34.6665C29.8987 34.6665 27.8181 34.2526 25.8769 33.4486C23.9357 32.6445 22.1719 31.4659 20.6861 29.9802C19.2004 28.4945 18.0218 26.7306 17.2178 24.7894C16.4137 22.8482 15.9998 20.7677 15.9998 18.6665C15.9998 16.5654 16.4137 14.4848 17.2178 12.5436C18.0218 10.6024 19.2004 8.83853 20.6861 7.35279C22.1719 5.86706 23.9357 4.68851 25.8769 3.88443C27.8181 3.08036 29.8987 2.6665 31.9998 2.6665C36.2433 2.6665 40.313 4.35221 43.3135 7.35279C46.3141 10.3534 47.9998 14.423 47.9998 18.6665C47.9998 22.91 46.3141 26.9796 43.3135 29.9802C40.313 32.9808 36.2433 34.6665 31.9998 34.6665ZM31.9998 29.3332C34.8288 29.3332 37.5419 28.2094 39.5423 26.209C41.5427 24.2086 42.6665 21.4955 42.6665 18.6665C42.6665 15.8375 41.5427 13.1244 39.5423 11.124C37.5419 9.12364 34.8288 7.99984 31.9998 7.99984C29.1709 7.99984 26.4578 9.12364 24.4574 11.124C22.457 13.1244 21.3332 15.8375 21.3332 18.6665C21.3332 21.4955 22.457 24.2086 24.4574 26.209C26.4578 28.2094 29.1709 29.3332 31.9998 29.3332Z" fill="#9E0909"/>
</g>
<defs>
<clipPath id="clip0_314_9804">
<rect width="64" height="64" fill="white"/>
</clipPath>
</defs>
</svg>
